<svg width="119" height="104" viewBox="0 0 119 104" fill="none" xmlns="http://www.w3.org/2000/svg">
<path d="M112.526 83.06C110.287 83.06 108.465 81.2411 108.459 79.003C108.454 78.7701 108.425 76.2263 109.683 73.8448H9.31635C10.5746 76.2259 10.5462 78.7701 10.5405 79.003C10.5348 81.2407 8.71244 83.06 6.4736 83.06C4.23476 83.06 2.40674 81.2354 2.40674 78.9932C2.40674 76.7509 4.23134 74.9263 6.4736 74.9263C6.88973 74.9263 7.22696 75.2636 7.22696 75.6797C7.22696 76.0958 6.88973 76.433 6.4736 76.433C5.06209 76.433 3.91346 77.5817 3.91346 78.9932C3.91346 80.4047 5.06209 81.5533 6.4736 81.5533C7.88511 81.5533 9.03374 80.4047 9.03374 78.9932C9.03374 78.9856 9.03374 78.978 9.03374 78.9708C9.0345 78.9408 9.09633 75.8109 7.34494 73.5539C7.16855 73.3267 7.13706 73.019 7.26338 72.7607C7.39008 72.5024 7.6522 72.3389 7.94011 72.3389H111.059C111.346 72.3389 111.609 72.5027 111.736 72.7607C111.862 73.019 111.83 73.3267 111.654 73.5539C109.903 75.8109 109.964 78.9408 109.965 78.9719C109.965 78.9788 109.965 78.9867 109.965 78.9932C109.965 80.4047 111.114 81.5533 112.525 81.5533C113.937 81.5533 115.086 80.4047 115.086 78.9932C115.086 77.5817 113.937 76.433 112.525 76.433C112.109 76.433 111.772 76.0958 111.772 75.6797C111.772 75.2636 112.109 74.9263 112.525 74.9263C114.768 74.9263 116.592 76.7509 116.592 78.9932C116.592 81.2354 114.768 83.06 112.525 83.06H112.526Z" fill="#1D5046"/>
<path d="M109.441 77.3524H9.55854C9.14241 77.3524 8.80518 77.0152 8.80518 76.5991C8.80518 76.1829 9.14241 75.8457 9.55854 75.8457H109.441C109.857 75.8457 110.195 76.1829 110.195 76.5991C110.195 77.0152 109.857 77.3524 109.441 77.3524Z" fill="#1D5046"/>
<path d="M14.3682 50.3881L13.3773 51.7545C11.1677 50.1518 9.31274 48.4315 7.7036 46.4942C5.11501 43.3932 3.99862 40.1536 4.38592 36.8656C4.82898 33.1154 7.31212 29.4571 11.5675 26.284C14.7194 23.7777 16.4541 20.7821 16.2083 18.2709C16.0277 16.4284 14.8332 14.8762 12.6577 13.6513C12.5204 13.5732 12.3793 13.4973 12.2336 13.4222L12.984 11.9629H13.0864C14.0973 12.4905 14.9034 13.0626 15.5441 13.6513C17.2196 15.1899 17.7643 16.8393 17.8888 18.1055C18.1957 21.2396 16.2713 24.7059 12.6073 27.6139L12.5872 27.6306C8.70618 30.5208 6.45027 33.7823 6.06297 37.0643C5.73181 39.8722 6.72035 42.6823 9.00168 45.4143C10.5202 47.2431 12.275 48.8689 14.3685 50.3885L14.3682 50.3881Z" fill="#1D5046"/>
<path d="M96.5189 51.9156H7.33659C7.26452 51.9156 7.19282 51.9065 7.12341 51.8883C4.89291 51.3056 2.79784 49.9059 0.718316 47.609C0.494128 47.3617 0.437226 47.0055 0.572649 46.7001C0.708072 46.3951 1.0104 46.1982 1.34422 46.1982H9.30459C9.77079 46.1982 10.1486 46.5761 10.1486 47.0423C10.1486 47.5085 9.77079 47.8863 9.30459 47.8863H3.38619C4.72676 49.0755 6.06733 49.8467 7.44812 50.2272H96.5193C96.9855 50.2272 97.3633 50.605 97.3633 51.0712C97.3633 51.5374 96.9855 51.9152 96.5193 51.9152L96.5189 51.9156Z" fill="#1D5046"/>
<path d="M111.978 12.4141C111.076 12.0363 110.074 11.9889 109.301 11.9711L108.786 11.9639H10.2029L9.67634 11.9722C8.90477 11.99 7.91394 12.0397 7.02136 12.4145C5.73503 12.9536 5.03743 14.0206 5.00481 15.4978C4.98281 16.495 5.36252 17.4445 6.07264 18.1717C6.79224 18.9072 7.79255 19.3294 8.81714 19.3294C9.72679 19.3294 10.6087 19.0032 11.2999 18.4103C11.6534 18.1076 11.6936 17.5746 11.3906 17.2199C11.0867 16.8664 10.5537 16.8254 10.2002 17.1293C9.81517 17.4597 9.32317 17.641 8.81676 17.641C8.24358 17.641 7.68331 17.4047 7.27931 16.992C6.88898 16.5921 6.67996 16.0751 6.69172 15.5346C6.72548 14.0036 7.80166 13.6997 9.90925 13.6553L10.0378 13.6523H108.962L109.09 13.6553C111.197 13.6997 112.273 14.0036 112.306 15.5346C112.318 16.0747 112.11 16.5918 111.719 16.9908C111.315 17.4043 110.755 17.641 110.182 17.641C109.675 17.641 109.184 17.4597 108.799 17.1293C108.445 16.8254 107.912 16.8664 107.608 17.2199C107.305 17.5746 107.346 18.1072 107.699 18.4103C108.39 19.0032 109.271 19.3294 110.182 19.3294C111.206 19.3294 112.206 18.9072 112.925 18.1717C113.636 17.4445 114.016 16.495 113.994 15.4978C113.962 14.0206 113.264 12.9536 111.976 12.4145L111.978 12.4141Z" fill="#1D5046"/>
<path d="M111.295 46.4969C109.688 48.4311 107.832 50.1522 105.623 51.7549L104.631 50.3885C106.725 48.8689 108.479 47.2431 109.997 45.4162C112.28 42.6823 113.268 39.8722 112.937 37.0643C112.549 33.7827 110.295 30.5212 106.413 27.6306L106.392 27.6139C102.728 24.7059 100.804 21.2396 101.112 18.1055C101.236 16.8393 101.781 15.1899 103.456 13.6513C104.097 13.0626 104.903 12.4905 105.914 11.9629H106.016L106.767 13.4222C106.621 13.4969 106.48 13.5732 106.343 13.6513C104.166 14.8766 102.972 16.4288 102.792 18.2709C102.545 20.7825 104.279 23.7781 107.432 26.284C111.688 29.4571 114.171 33.1154 114.613 36.8656C115.002 40.1536 113.885 43.3932 111.295 46.4965L111.295 46.4969Z" fill="#1D5046"/>
<path d="M111.663 51.9162H96.5183C96.0521 51.9162 95.6743 51.5384 95.6743 51.0722C95.6743 50.606 96.0521 50.2282 96.5183 50.2282H111.552C112.933 49.8477 114.273 49.0765 115.614 47.8873H109.695C109.229 47.8873 108.851 47.5094 108.851 47.0432C108.851 46.577 109.229 46.1992 109.695 46.1992H117.656C117.99 46.1992 118.292 46.3961 118.427 46.7011C118.563 47.0061 118.505 47.3626 118.282 47.61C116.202 49.9069 114.107 51.3066 111.877 51.8893C111.807 51.9075 111.735 51.9166 111.663 51.9166L111.663 51.9162Z" fill="#1D5046"/>
<path d="M59.5 12.9153C59.2785 12.9153 59.0611 12.8083 58.9288 12.6099C56.372 8.77749 53.3514 6.02009 49.9502 4.41436C49.261 4.08927 48.5672 3.88784 47.8882 3.81539C45.8276 3.59538 44.3812 4.51034 43.588 6.53523C42.7068 8.7847 39.8299 10.7899 38.9688 11.3509C37.299 12.4392 35.2202 12.5796 33.4081 11.7261C31.6294 10.8881 30.4364 9.23231 30.2176 7.29694C30.2092 7.22145 30.2016 7.1452 30.1956 7.0682C30.0943 5.78301 30.5506 4.45495 31.4166 3.51571C32.1764 2.69142 33.1927 2.23584 34.2787 2.23242H34.2874C35.1019 2.23242 35.8602 2.55713 36.4242 3.147C36.9921 3.74104 37.2831 4.52134 37.2436 5.34412C37.1723 6.82998 35.9539 8.06661 34.4699 8.15993C33.9381 8.19331 33.407 8.08368 32.9347 7.84281C32.5971 7.67097 32.4632 7.25787 32.6351 6.92026C32.8069 6.58265 33.22 6.44875 33.5576 6.62059C33.8114 6.74994 34.0963 6.80911 34.3838 6.79053C35.1808 6.74045 35.8351 6.07586 35.8735 5.27773C35.8947 4.83429 35.738 4.41398 35.4327 4.09458C35.13 3.77822 34.7237 3.6041 34.2874 3.6041H34.2829C33.3861 3.60676 32.7777 4.0631 32.4253 4.44509C31.8229 5.09868 31.4925 6.06258 31.5631 6.96009C31.568 7.02154 31.5737 7.08262 31.5805 7.14255C31.7455 8.60148 32.6472 9.85101 33.9927 10.4849C35.3712 11.1343 36.9511 11.0285 38.2197 10.2015C39.8155 9.16138 41.7281 7.52037 42.3104 6.03451C43.3274 3.43795 45.3595 2.16566 48.0331 2.45092C48.865 2.53968 49.7067 2.78246 50.5352 3.17318C54.165 4.88702 57.3727 7.80563 60.0694 11.8482C60.2796 12.1634 60.1946 12.5891 59.8794 12.7996C59.7625 12.8777 59.6301 12.9149 59.4993 12.9149L59.5 12.9153Z" fill="#1D5046"/>
<path d="M46.1563 11.5659C43.9262 11.5659 42.1118 9.75157 42.1118 7.52145C42.1118 6.99873 42.1695 6.53518 42.2886 6.10349C42.3891 5.73819 42.7666 5.52387 43.1319 5.62439C43.4972 5.72492 43.7115 6.10273 43.611 6.46766C43.5252 6.77871 43.4835 7.12315 43.4835 7.52107C43.4835 8.99479 44.6826 10.1939 46.1563 10.1939C47.4081 10.1939 48.5074 9.30737 48.7703 8.08553C48.85 7.71529 49.2153 7.47973 49.5851 7.55939C49.9554 7.63905 50.1909 8.00397 50.1113 8.3742C49.7133 10.2235 48.0503 11.5659 46.1563 11.5659Z" fill="#1D5046"/>
<path d="M59.499 12.9155C59.3681 12.9155 59.2357 12.8783 59.1189 12.8002C58.8036 12.59 58.7187 12.164 58.9288 11.8488C61.6255 7.80623 64.8332 4.88762 68.4627 3.17377C69.2915 2.78306 70.1333 2.5399 70.9652 2.45152C73.638 2.16626 75.6704 3.43855 76.6878 6.0351C77.2701 7.52096 79.1827 9.16197 80.7786 10.2021C82.0471 11.0287 83.627 11.1345 85.0055 10.4855C86.3507 9.85161 87.2523 8.60208 87.4177 7.14277C87.4245 7.08283 87.4302 7.02214 87.4352 6.96069C87.5057 6.06318 87.1753 5.09928 86.5729 4.44569C86.2205 4.06331 85.6125 3.60698 84.7153 3.6047H84.7108C84.2745 3.6047 83.8683 3.77881 83.5656 4.09518C83.2602 4.41496 83.1035 4.83489 83.1248 5.27871C83.1631 6.07683 83.8174 6.74143 84.6144 6.7915C84.9004 6.81009 85.1868 6.75092 85.4406 6.62156C85.7775 6.44934 86.191 6.58362 86.3632 6.92123C86.535 7.25884 86.4011 7.67194 86.0635 7.84378C85.5908 8.08466 85.0602 8.19429 84.5283 8.16091C83.0444 8.06759 81.8259 6.83057 81.7546 5.34509C81.7152 4.52231 82.0061 3.74202 82.574 3.14798C83.1381 2.55811 83.8963 2.2334 84.7108 2.2334H84.7195C85.8055 2.23643 86.8222 2.69239 87.5816 3.51669C88.4472 4.45631 88.904 5.78398 88.8027 7.06918C88.7966 7.14618 88.7894 7.22243 88.7807 7.29754C88.5614 9.23329 87.3688 10.8891 85.5901 11.727C83.778 12.5809 81.6992 12.4406 80.0294 11.3519C79.1687 10.7908 76.2914 8.78568 75.4102 6.53621C74.617 4.51131 73.1706 3.59635 71.1101 3.81637C70.4307 3.88882 69.7369 4.09025 69.0472 4.41534C65.6465 6.02107 62.6258 8.77846 60.0691 12.6109C59.9367 12.8089 59.7194 12.9163 59.4978 12.9163L59.499 12.9155Z" fill="#1D5046"/>
<path d="M72.8425 11.5665C70.9485 11.5665 69.2851 10.2241 68.8876 8.3748C68.8079 8.00457 69.0435 7.63964 69.4141 7.55998C69.7835 7.4807 70.1492 7.71589 70.2289 8.0865C70.4914 9.30797 71.5907 10.1949 72.8429 10.1949C74.3166 10.1949 75.5157 8.99577 75.5157 7.52205C75.5157 7.12413 75.474 6.77969 75.3882 6.46863C75.2877 6.10333 75.502 5.72589 75.8673 5.62537C76.2334 5.52485 76.6105 5.73917 76.7106 6.10447C76.8293 6.53578 76.8874 6.9997 76.8874 7.52243C76.8874 9.75255 75.073 11.5669 72.8429 11.5669L72.8425 11.5665Z" fill="#1D5046"/>
<path d="M59.4999 11.4355C57.4659 11.4355 55.873 8.92388 55.873 5.71773C55.873 2.51158 57.4663 0 59.4999 0C61.5335 0 63.1267 2.51158 63.1267 5.71773C63.1267 8.92388 61.5335 11.4355 59.4999 11.4355ZM59.4999 1.55794C58.5212 1.55794 57.4306 3.26646 57.4306 5.71773C57.4306 8.169 58.5212 9.87753 59.4999 9.87753C60.4786 9.87753 61.5692 8.169 61.5692 5.71773C61.5692 3.26646 60.4786 1.55794 59.4999 1.55794Z" fill="#1D5046"/>
<path d="M24.8615 47.7991C24.8065 47.9353 24.6832 48.0343 24.5376 48.0502C23.6943 48.1462 22.5434 47.5058 22.0704 45.407C21.8837 44.5755 21.8636 43.7174 21.9638 42.8715C22.238 40.5439 23.1458 39.8482 24.338 39.8831C24.4678 39.8873 24.585 39.9631 24.6461 40.0773C24.7253 40.226 24.6946 40.4119 24.5668 40.5226C22.6432 42.1845 23.4777 46.1099 24.7629 47.353C24.8452 47.4323 24.8896 47.5396 24.8896 47.6496C24.8896 47.7005 24.8801 47.7509 24.8611 47.7995L24.8615 47.7991ZM62.6051 47.9364C62.6832 48.0271 62.714 48.1485 62.6863 48.2657C62.6692 48.3396 62.6305 48.406 62.5774 48.4565C62.5247 48.5062 62.4571 48.5418 62.3813 48.5536C60.6872 48.8187 59.4729 47.7843 58.8352 45.1896C58.6107 44.2766 58.5879 43.3187 58.8368 42.4117C59.3663 40.4813 60.8647 39.2322 62.5607 39.7689C62.7284 39.8216 62.775 40.0379 62.6472 40.1592C62.11 40.6691 61.0013 41.9509 61.021 43.8346C61.043 45.9555 62.2132 47.4846 62.6047 47.9364H62.6051ZM103.867 40.9771C103.84 40.8178 103.702 40.7006 103.541 40.6964C96.3592 40.5329 88.4166 40.5105 79.9643 40.5814C79.866 40.5814 79.8376 40.4441 79.9294 40.4062C80.9213 39.9958 83.3009 39.715 85.4332 39.4639L83.3969 34.8607C83.3358 34.7226 83.2402 34.6027 83.1192 34.5121L81.0382 32.9553C80.9612 32.9014 81.0108 32.78 81.1034 32.7948L84.4772 33.3536C84.6843 33.3877 84.8452 33.5527 84.8744 33.7606L85.6744 39.4355H85.6774C89.8297 39.0872 93.81 38.9753 97.5601 39.1844L97.7627 34.2754C97.7733 34.0189 98.1151 33.9347 98.2395 34.1593C98.8305 35.2283 98.9277 37.323 98.933 39.275C99.8426 39.3456 100.737 39.4366 101.618 39.5481L100.914 33.6335C98.9102 33.6453 97.5837 32.703 97.2237 30.3951L95.2811 24.256C89.4226 22.9875 78.3365 22.6256 66.6397 22.3691L44.7019 22.651C44.2695 22.6438 43.8693 22.6688 43.4968 22.7238C42.6084 22.8524 41.7894 23.2811 41.1491 23.9108L34.8737 30.086L36.3869 30.1315C38.9216 27.6707 41.9385 24.8986 42.7908 24.2878C42.5557 25.1531 41.5447 27.8407 40.6468 30.3109L42.2233 30.424L44.2228 24.2002L52.0523 24.0314C52.3592 24.0545 52.6149 24.1065 52.8163 24.1877C53.1372 24.3174 53.3186 24.6592 53.27 25.0021C53.0936 26.2683 52.4988 30.5207 52.4745 30.5928C52.448 30.6728 74.4999 31.9591 76.9281 32.1006C76.9891 32.1037 77.0453 32.1314 77.0862 32.1712C77.1264 32.2122 77.1538 32.2683 77.1568 32.3294C77.1651 32.472 77.0513 32.59 76.9099 32.5881C61.4974 32.2084 47.0633 31.9307 35.3801 31.9443C28.785 31.9022 22.9235 32.3275 17.6947 33.1556C15.6 33.6559 14.9563 34.7647 15.2161 36.2525C16.8803 40.7404 18.4413 44.3107 20.3982 45.8846C18.1211 41.6322 19.69 36.4922 23.8089 36.9512C23.8817 36.9595 23.9469 36.9914 23.9955 37.0407C24.0452 37.0893 24.0778 37.1545 24.0862 37.2274C24.1021 37.3772 24.0091 37.5175 23.8646 37.5608C20.2143 38.6355 19.6437 43.1788 22.0533 48.0658C22.5449 49.063 23.2766 49.9321 24.214 50.5299C27.0142 52.3166 30.6657 51.4301 32.2548 48.2213C28.5301 49.0221 26.872 45.0652 28.6185 41.8393C29.6165 44.566 29.0027 46.8356 32.2263 46.8982L40.6753 47.18C41.9627 50.1536 43.7957 51.6023 46.4484 50.756C49.3249 51.4407 50.9932 49.9416 51.9958 47.2358L55.939 47.18C53.0117 41.3963 54.5544 34.8626 61.0123 35.2351C61.1317 35.2419 61.2448 35.3106 61.2918 35.4206C61.3772 35.6186 61.2395 35.8375 61.0289 35.8462C60.2881 35.88 59.6319 36.0563 59.042 36.3473C57.9055 36.9087 57.0645 37.9291 56.6582 39.129C55.2634 43.255 56.4989 48.0475 58.6137 50.3342L70.1038 50.5876L71.2024 48.7008C67.0426 49.239 65.7976 44.7204 67.5979 41.4558C67.7098 41.2533 68.0167 41.3185 68.0357 41.5499C68.3145 44.9537 68.8808 46.5439 69.811 46.9824C69.9331 47.04 70.067 47.0681 70.202 47.0723L75.02 47.2267C76.1375 50.7196 77.6864 52.1091 80.7487 50.7279C85.1763 52.1463 88.5149 51.3811 89.6483 46.1949C95.3611 45.3728 99.0691 45.3497 100.688 43.3787C103.525 43.6962 104.138 42.6158 103.866 40.9771H103.867ZM83.8718 27.2311C83.9321 26.9261 84.0543 26.6435 84.275 26.3943C84.6305 25.9922 85.1646 25.7938 85.6994 25.8257L93.0942 26.271C93.0942 26.271 94.2201 26.0453 94.871 28.7739C95.522 31.5028 95.5717 31.8529 95.5717 31.8529L84.165 31.3666L83.8483 27.7136C83.8346 27.552 83.8399 27.3897 83.8714 27.2315L83.8718 27.2311Z" fill="#1D5046"/>
<path d="M15.2881 57.9788V56.5791H23.1263V59.6912H21.9242L21.3643 58.3574H18.2355V61.4039H19.52L19.9812 60.4324H21.1834V64.2034H19.9812L19.553 63.1989H18.2355V66.3277H21.5289L21.9242 64.8293H23.2909V68.1064H15.2881V66.7396L16.1939 66.3937V58.3252L15.2881 57.9792V57.9788Z" fill="#1D5046"/>
<path d="M31.2933 58.3244L30.2395 57.9952V56.5791H34.5537V57.9788L33.4999 58.3248L30.2228 68.106H28.2468L25.085 58.3248L24.0312 57.9788V56.5791H28.2961V57.9952L27.2916 58.3244L29.2346 65.5367L31.2929 58.3244H31.2933Z" fill="#1D5046"/>
<path d="M35.3441 57.9788V56.5791H43.1824V59.6912H41.9802L41.4203 58.3574H38.2916V61.4039H39.576L40.0369 60.4324H41.239V64.2034H40.0369L39.6086 63.1989H38.2912V66.3277H41.5846L41.9799 64.8293H43.3466V68.1064H35.3438V66.7396L36.2496 66.3937V58.3252L35.3438 57.9792L35.3441 57.9788Z" fill="#1D5046"/>
<path d="M44.7793 57.9788V56.5791H49.2748C51.7614 56.5791 53.1611 57.6496 53.1611 59.9711C53.1611 61.6178 52.4529 62.7209 51.1685 63.2152L52.7162 66.377L53.902 66.7229V68.106H51.3168L49.0446 63.5282H47.7108V66.3933L48.5837 66.7225V68.1056H44.7797V66.7389L45.6688 66.3929V58.3244L44.7797 57.9785L44.7793 57.9788ZM47.71 58.3574V61.7495H49.1428C50.4435 61.7495 51.0034 61.2226 51.0034 59.9711C51.0034 58.8513 50.4272 58.3574 49.1428 58.3574H47.71Z" fill="#1D5046"/>
<path d="M54.9385 57.9788V56.5791H59.434C61.9205 56.5791 63.3203 57.6496 63.3203 59.9711C63.3203 61.6178 62.6121 62.7209 61.328 63.2152L62.8757 66.377L64.0611 66.7229V68.106H61.476L59.2037 63.5282H57.87V66.3933L58.7428 66.7225V68.1056H54.9389V66.7389L55.828 66.3929V58.3244L54.9389 57.9785L54.9385 57.9788ZM57.8696 58.3574V61.7495H59.3024C60.6031 61.7495 61.163 61.2226 61.163 59.9711C61.163 58.8513 60.5868 58.3574 59.3024 58.3574H57.8696Z" fill="#1D5046"/>
<path d="M69.7914 68.2701C66.432 68.2701 64.835 65.6683 64.835 62.3422C64.835 59.0162 66.4323 56.4307 69.7914 56.4307C73.1504 56.4307 74.7478 59.0158 74.7478 62.3422C74.7478 65.6686 73.1504 68.2701 69.7914 68.2701ZM69.7914 66.4914C71.9813 66.4914 72.5579 64.0709 72.5579 62.3419C72.5579 60.6128 71.9817 58.2086 69.7914 58.2086C67.6011 58.2086 67.0249 60.5468 67.0249 62.3419C67.0249 64.1369 67.6011 66.4914 69.7914 66.4914Z" fill="#1D5046"/>
<path d="M81.6968 57.9788V56.5791H85.5501V57.9788L84.6443 58.3081V64.1537C84.6443 66.8872 83.2445 68.2702 80.6756 68.2702C78.1068 68.2702 76.7237 66.8872 76.7237 64.1537V58.3081L75.8179 57.9788V56.5791H79.6712V57.9788L78.7653 58.3081V63.9891C78.7653 65.3888 79.2922 66.311 80.6753 66.311C82.0583 66.311 82.6019 65.3888 82.6019 63.9891V58.3081L81.6964 57.9788H81.6968Z" fill="#1D5046"/>
<path d="M89.5842 66.3933V58.3574H88.2342L87.6743 59.6912H86.4722V56.5791H94.5737V59.6912H93.3715L92.8283 58.3574H91.6262V66.3933L92.5321 66.7225V68.1056H88.6955V66.7225L89.5846 66.3933H89.5842Z" fill="#1D5046"/>
<path d="M95.7095 57.9788V56.5791H103.548V59.6912H102.346L101.786 58.3574H98.6569V61.4039H99.9413L100.403 60.4324H101.605V64.2034H100.403L99.9743 63.1989H98.6569V66.3277H101.95L102.346 64.8293H103.712V68.1064H95.7095V66.7396L96.615 66.3937V58.3252L95.7095 57.9792V57.9788Z" fill="#1D5046"/>
<path d="M33.6003 86.3035V81.4093L33.0757 81.2287V80.8418H37.058V82.149H36.7052L36.4214 81.3664H34.2368V83.5685H35.4238L35.6904 82.9835H36.0258V84.7125H35.6904L35.4238 84.1018H34.2368V86.3039L34.7615 86.4757V86.8626H33.0757V86.4841L33.6003 86.3035Z" fill="#1D5046"/>
<path d="M43.6899 81.2287V80.8418H45.3844V81.2287L44.8598 81.4006V84.7205C44.8598 86.2344 44.0943 86.9396 42.7784 86.9396C41.4625 86.9396 40.697 86.2344 40.697 84.7205V81.4006L40.1724 81.2287V80.8418H41.8669V81.2287L41.3422 81.4006V84.7034C41.3422 85.7185 41.7637 86.3634 42.7788 86.3634C43.7939 86.3634 44.2153 85.7182 44.2153 84.7034V81.4006L43.6907 81.2287H43.6899Z" fill="#1D5046"/>
<path d="M53.3925 86.9484L49.9003 81.6414V86.3035L50.5198 86.4753V86.8622H48.7134V86.4753L49.3241 86.3035V81.4093L48.7995 81.2287V80.8418H50.1412L53.3151 85.6928V81.4006L52.7044 81.2287V80.8418H54.485V81.2287L53.8742 81.4006V86.9484H53.3925Z" fill="#1D5046"/>
<path d="M57.9004 81.2287V80.8418H61.9085V82.149H61.5557L61.2719 81.3664H59.0615V83.5252H60.214L60.4894 82.9403H60.8251V84.6693H60.4894L60.214 84.0586H59.0615V86.3122H61.3838L61.5989 85.5983H61.9946V86.8626H57.9004V86.4757L58.425 86.2951V81.4097L57.9004 81.2291V81.2287Z" fill="#1D5046"/>
<path d="M65.4863 81.2194V80.8408H67.4904C68.8837 80.8408 69.6321 81.3742 69.6321 82.5524C69.6321 83.4814 69.1591 84.0231 68.2729 84.2124L69.6321 86.2938L70.3202 86.4743V86.8613H69.2277L67.5935 84.281H66.6475V86.3025L67.1721 86.4743V86.8613H65.4863V86.4743L66.011 86.3025V81.3996L65.4863 81.219V81.2194ZM66.6479 81.3829V83.7397H67.4737C68.5058 83.7397 68.9618 83.3528 68.9618 82.5615C68.9618 81.7702 68.5146 81.3829 67.4737 81.3829H66.6479Z" fill="#1D5046"/>
<path d="M77.0729 85.1072H74.63L74.2085 86.3029L74.8018 86.4747V86.8616H72.9268V86.4831L73.5375 86.3025L75.5415 80.8408H76.1522L78.1821 86.3025L78.7928 86.4831V86.8616H76.892V86.4747L77.5027 86.3029L77.0725 85.1072H77.0729ZM74.8109 84.5913H76.8836L75.8431 81.6754L74.8109 84.5913Z" fill="#1D5046"/>
<path d="M81.8472 86.4757L82.3718 86.2951V81.4009L81.8472 81.2204V80.8418H83.5329V81.2287L83.0083 81.4006V86.3118H85.3135L85.5286 85.5979H85.9243V86.8622H81.8472V86.4753V86.4757Z" fill="#1D5046"/>
</svg>
