<svg width="238" height="176" viewBox="0 0 238 176" fill="none" xmlns="http://www.w3.org/2000/svg">
<path d="M225.951 167.529C221.435 167.529 217.759 163.861 217.748 159.347C217.737 158.877 217.679 153.746 220.217 148.943H17.782C20.3199 153.745 20.2625 158.877 20.251 159.347C20.2395 163.86 16.564 167.529 12.0484 167.529C7.53273 167.529 3.8457 163.849 3.8457 159.327C3.8457 154.804 7.52584 151.124 12.0484 151.124C12.8877 151.124 13.5679 151.804 13.5679 152.644C13.5679 153.483 12.8877 154.163 12.0484 154.163C9.20141 154.163 6.88469 156.48 6.88469 159.327C6.88469 162.174 9.20141 164.49 12.0484 164.49C14.8953 164.49 17.212 162.174 17.212 159.327C17.212 159.311 17.212 159.296 17.212 159.282C17.2136 159.221 17.3383 152.908 13.8058 148.356C13.45 147.898 13.3865 147.277 13.6413 146.756C13.8968 146.235 14.4255 145.905 15.0062 145.905H222.992C223.571 145.905 224.101 146.236 224.356 146.756C224.612 147.277 224.548 147.898 224.192 148.356C220.659 152.908 220.784 159.221 220.786 159.284C220.786 159.298 220.786 159.314 220.786 159.327C220.786 162.174 223.102 164.49 225.949 164.49C228.796 164.49 231.113 162.174 231.113 159.327C231.113 156.48 228.796 154.163 225.949 154.163C225.11 154.163 224.43 153.483 224.43 152.644C224.43 151.804 225.11 151.124 225.949 151.124C230.473 151.124 234.152 154.804 234.152 159.327C234.152 163.849 230.472 167.529 225.949 167.529H225.951Z" fill="white"/>
<path d="M219.729 156.017H18.271C17.4316 156.017 16.7515 155.336 16.7515 154.497C16.7515 153.658 17.4316 152.978 18.271 152.978H219.729C220.568 152.978 221.249 153.658 221.249 154.497C221.249 155.336 220.568 156.017 219.729 156.017Z" fill="white"/>
<path d="M27.9707 101.632L25.9723 104.388C21.5156 101.155 17.7742 97.6852 14.5287 93.7779C9.3076 87.5232 7.05591 80.9892 7.83707 74.3573C8.73071 66.7935 13.7391 59.4149 22.322 53.0148C28.6792 47.9597 32.178 41.9177 31.6822 36.8528C31.3181 33.1367 28.9087 30.0059 24.5209 27.5354C24.2439 27.3777 23.9593 27.2247 23.6655 27.0732L25.1789 24.1299H25.3854C27.4244 25.1941 29.0503 26.3479 30.3425 27.5354C33.722 30.6386 34.8207 33.9653 35.0716 36.5192C35.6906 42.8405 31.8092 49.8319 24.4191 55.6972L24.3786 55.7309C16.5508 61.5602 12.0008 68.1385 11.2196 74.7582C10.5517 80.4215 12.5455 86.0894 17.1468 91.5996C20.2095 95.2882 23.7489 98.5674 27.9715 101.632L27.9707 101.632Z" fill="white"/>
<path d="M193.665 104.712H13.7891C13.6437 104.712 13.4991 104.694 13.3591 104.657C8.86027 103.482 4.63462 100.659 0.440331 96.0261C-0.0118438 95.5272 -0.126611 94.8088 0.14653 94.1929C0.419672 93.5778 1.02946 93.1807 1.70275 93.1807H17.7584C18.6987 93.1807 19.4608 93.9427 19.4608 94.883C19.4608 95.8233 18.6987 96.5854 17.7584 96.5854H5.82129C8.52516 98.984 11.229 100.539 14.014 101.307H193.666C194.606 101.307 195.368 102.069 195.368 103.009C195.368 103.949 194.606 104.712 193.666 104.712L193.665 104.712Z" fill="white"/>
<path d="M224.845 25.039C223.027 24.277 221.005 24.1814 219.445 24.1454L218.407 24.1309H19.57L18.508 24.1477C16.9518 24.1836 14.9534 24.2839 13.1531 25.0398C10.5586 26.127 9.15161 28.2792 9.08581 31.2586C9.04143 33.27 9.8073 35.1851 11.2396 36.6518C12.691 38.1353 14.7085 38.9868 16.7751 38.9868C18.6098 38.9868 20.3887 38.3288 21.7827 37.133C22.4957 36.5224 22.5768 35.4475 21.9655 34.7321C21.3527 34.019 20.2777 33.9364 19.5646 34.5493C18.7881 35.2157 17.7957 35.5814 16.7743 35.5814C15.6182 35.5814 14.4882 35.1047 13.6734 34.2723C12.8861 33.4659 12.4645 32.423 12.4882 31.3328C12.5563 28.2448 14.7269 27.632 18.9778 27.5424L19.2372 27.5363H218.761L219.021 27.5424C223.271 27.632 225.44 28.2448 225.508 31.3328C225.532 32.4223 225.112 33.4651 224.322 34.27C223.509 35.104 222.379 35.5814 221.223 35.5814C220.2 35.5814 219.21 35.2157 218.433 34.5493C217.72 33.9364 216.645 34.019 216.032 34.7321C215.419 35.4475 215.502 36.5217 216.215 37.133C217.609 38.3288 219.386 38.9868 221.223 38.9868C223.289 38.9868 225.304 38.1353 226.756 36.6518C228.19 35.1851 228.956 33.27 228.912 31.2586C228.846 28.2792 227.439 26.127 224.842 25.0398L224.845 25.039Z" fill="white"/>
<path d="M223.468 93.7822C220.226 97.6835 216.482 101.155 212.028 104.387L210.027 101.631C214.25 98.5664 217.789 95.2872 220.849 91.6025C225.455 86.0884 227.447 80.4205 226.779 74.7572C225.998 68.1383 221.45 61.56 213.621 55.7299L213.579 55.6962C206.189 49.831 202.307 42.8395 202.928 36.5182C203.179 33.9643 204.278 30.6376 207.657 27.5344C208.949 26.3469 210.576 25.1932 212.615 24.1289H212.821L214.335 27.0723C214.041 27.223 213.755 27.3768 213.479 27.5344C209.088 30.0057 206.681 33.1365 206.317 36.8518C205.819 41.9175 209.318 47.9595 215.677 53.0138C224.261 59.4139 229.269 66.7925 230.161 74.3563C230.944 80.9882 228.692 87.5222 223.467 93.7815L223.468 93.7822Z" fill="white"/>
<path d="M224.21 104.713H193.664C192.724 104.713 191.962 103.95 191.962 103.01C191.962 102.07 192.724 101.308 193.664 101.308H223.986C226.771 100.54 229.475 98.9849 232.179 96.5863H220.242C219.301 96.5863 218.539 95.8243 218.539 94.884C218.539 93.9437 219.301 93.1816 220.242 93.1816H236.297C236.971 93.1816 237.58 93.5787 237.853 94.1939C238.127 94.809 238.011 95.5282 237.56 96.0271C233.365 100.66 229.14 103.483 224.641 104.658C224.5 104.695 224.356 104.713 224.211 104.713L224.21 104.713Z" fill="white"/>
<path d="M119 26.0507C118.554 26.0507 118.115 25.835 117.848 25.4348C112.691 17.705 106.599 12.1434 99.739 8.90477C98.3488 8.24908 96.9494 7.84281 95.5799 7.69667C91.4238 7.25292 88.5065 9.09835 86.9067 13.1825C85.1293 17.7195 79.3268 21.7638 77.59 22.8954C74.2221 25.0905 70.0293 25.3736 66.3744 23.6521C62.7868 21.962 60.3806 18.6223 59.9391 14.7188C59.9223 14.5665 59.907 14.4127 59.8948 14.2574C59.6905 11.6653 60.6109 8.98663 62.3576 7.09224C63.8901 5.42968 65.9398 4.51079 68.1303 4.50391H68.1479C69.7906 4.50391 71.32 5.15883 72.4577 6.34857C73.6031 7.54672 74.1899 9.12053 74.1103 10.78C73.9665 13.7769 71.509 16.2712 68.5159 16.4594C67.4432 16.5267 66.3721 16.3056 65.4196 15.8198C64.7386 15.4732 64.4685 14.64 64.8151 13.959C65.1617 13.2781 65.9949 13.008 66.6759 13.3546C67.1877 13.6155 67.7623 13.7349 68.3422 13.6974C69.9497 13.5964 71.2695 12.2559 71.3468 10.6461C71.3896 9.75174 71.0737 8.904 70.4577 8.25979C69.8472 7.62169 69.0278 7.27052 68.1479 7.27052H68.1387C66.33 7.27587 65.1028 8.19628 64.392 8.96674C63.177 10.285 62.5106 12.2291 62.6529 14.0394C62.6629 14.1633 62.6744 14.2865 62.6881 14.4074C63.021 17.35 64.8396 19.8702 67.5534 21.1487C70.3338 22.4586 73.5205 22.2451 76.079 20.5772C79.2977 18.4793 83.1554 15.1694 84.3298 12.1725C86.381 6.9354 90.4797 4.36925 95.8721 4.94461C97.55 5.12364 99.2478 5.61331 100.919 6.40136C108.24 9.85809 114.71 15.7448 120.149 23.8985C120.573 24.5343 120.401 25.3927 119.765 25.8174C119.53 25.975 119.263 26.0499 118.999 26.0499L119 26.0507Z" fill="white"/>
<path d="M92.0872 23.3287C87.5892 23.3287 83.9297 19.6692 83.9297 15.1712C83.9297 14.1169 84.046 13.1819 84.2862 12.3112C84.489 11.5744 85.2503 11.1422 85.987 11.3449C86.7238 11.5477 87.1561 12.3097 86.9534 13.0457C86.7805 13.6731 86.6963 14.3678 86.6963 15.1704C86.6963 18.1428 89.1148 20.5613 92.0872 20.5613C94.612 20.5613 96.8293 18.7733 97.3595 16.3089C97.5202 15.5622 98.257 15.087 99.003 15.2477C99.7497 15.4084 100.225 16.1444 100.064 16.8911C99.2616 20.621 95.9074 23.3287 92.0872 23.3287Z" fill="white"/>
<path d="M118.998 26.0511C118.734 26.0511 118.467 25.9761 118.232 25.8185C117.596 25.3947 117.425 24.5355 117.848 23.8997C123.287 15.746 129.757 9.85928 137.078 6.40255C138.749 5.61449 140.447 5.12406 142.125 4.94579C147.516 4.37044 151.615 6.93659 153.667 12.1737C154.842 15.1706 158.699 18.4804 161.918 20.5784C164.477 22.2455 167.663 22.459 170.444 21.1499C173.157 19.8714 174.975 17.3512 175.309 14.4078C175.323 14.2869 175.334 14.1645 175.344 14.0406C175.487 12.2303 174.82 10.2862 173.605 8.96793C172.894 8.19671 171.668 7.27629 169.858 7.2717H169.849C168.969 7.2717 168.15 7.62288 167.539 8.26098C166.924 8.90596 166.608 9.75293 166.65 10.6481C166.728 12.2579 168.047 13.5983 169.655 13.6993C170.232 13.7368 170.809 13.6175 171.321 13.3566C172.001 13.0092 172.835 13.28 173.182 13.961C173.529 14.6419 173.259 15.4751 172.578 15.8217C171.624 16.3076 170.554 16.5287 169.481 16.4613C166.488 16.2731 164.031 13.7781 163.887 10.782C163.807 9.12249 164.394 7.54867 165.539 6.35052C166.677 5.16079 168.207 4.50586 169.849 4.50586H169.867C172.057 4.51198 174.108 5.43163 175.64 7.0942C177.386 8.98935 178.307 11.6672 178.102 14.2594C178.09 14.4147 178.076 14.5685 178.058 14.72C177.616 18.6243 175.21 21.964 171.623 23.6541C167.968 25.3763 163.775 25.0932 160.407 22.8974C158.671 21.7658 152.868 17.7215 151.091 13.1844C149.491 9.1003 146.573 7.25487 142.417 7.69863C141.047 7.84476 139.648 8.25103 138.257 8.90673C131.398 12.1454 125.305 17.7069 120.148 25.4367C119.881 25.8361 119.443 26.0527 118.996 26.0527L118.998 26.0511Z" fill="white"/>
<path d="M145.911 23.3289C142.091 23.3289 138.736 20.6212 137.935 16.8913C137.774 16.1446 138.249 15.4086 138.997 15.2479C139.742 15.088 140.479 15.5624 140.64 16.3099C141.169 18.7735 143.387 20.5623 145.912 20.5623C148.885 20.5623 151.303 18.1438 151.303 15.1714C151.303 14.3688 151.219 13.6741 151.046 13.0467C150.843 12.3099 151.276 11.5486 152.012 11.3459C152.751 11.1431 153.511 11.5754 153.713 12.3122C153.953 13.1821 154.07 14.1178 154.07 15.1722C154.07 19.6702 150.41 23.3297 145.912 23.3297L145.911 23.3289Z" fill="white"/>
<path d="M119 23.0648C114.897 23.0648 111.685 17.999 111.685 11.5324C111.685 5.06574 114.898 0 119 0C123.101 0 126.315 5.06574 126.315 11.5324C126.315 17.999 123.101 23.0648 119 23.0648ZM119 3.14228C117.026 3.14228 114.826 6.58829 114.826 11.5324C114.826 16.4765 117.026 19.9225 119 19.9225C120.974 19.9225 123.173 16.4765 123.173 11.5324C123.173 6.58829 120.974 3.14228 119 3.14228Z" fill="white"/>
<path d="M49.136 96.4081C49.025 96.6828 48.7764 96.8824 48.4826 96.9146C46.7817 97.1081 44.4604 95.8167 43.5063 91.5833C43.1299 89.9062 43.0894 88.1756 43.2914 86.4694C43.8445 81.7747 45.6754 80.3715 48.0801 80.4419C48.3418 80.4503 48.5782 80.6034 48.7014 80.8337C48.8613 81.1336 48.7993 81.5085 48.5415 81.7319C44.6617 85.0838 46.3449 93.0011 48.937 95.5083C49.1031 95.6682 49.1926 95.8848 49.1926 96.1066C49.1926 96.2092 49.1735 96.3109 49.1352 96.4088L49.136 96.4081ZM125.263 96.685C125.42 96.8679 125.482 97.1127 125.427 97.3492C125.392 97.4984 125.314 97.6322 125.207 97.734C125.101 97.8342 124.964 97.9061 124.811 97.9299C121.394 98.4647 118.945 96.3782 117.659 91.1449C117.206 89.3033 117.16 87.3715 117.662 85.5421C118.73 81.6485 121.753 79.129 125.173 80.2116C125.511 80.318 125.606 80.7541 125.348 80.9989C124.264 82.0272 122.028 84.6125 122.068 88.412C122.112 92.6897 124.472 95.7738 125.262 96.685H125.263ZM208.486 82.6485C208.432 82.3271 208.154 82.0907 207.828 82.0823C193.343 81.7526 177.323 81.7074 160.275 81.8505C160.077 81.8505 160.02 81.5735 160.205 81.497C162.206 80.6692 167.005 80.103 171.306 79.5965L167.199 70.312C167.076 70.0335 166.883 69.7917 166.639 69.6089L162.441 66.4689C162.286 66.3602 162.386 66.1154 162.573 66.1452L169.378 67.2722C169.796 67.3411 170.12 67.6739 170.179 68.0932L171.792 79.5391H171.799C180.173 78.8368 188.202 78.611 195.765 79.0326L196.174 69.1314C196.195 68.6142 196.885 68.4444 197.136 68.8973C198.328 71.0534 198.524 75.2783 198.534 79.2155C200.369 79.3578 202.174 79.5414 203.949 79.7663L202.53 67.8369C198.488 67.8606 195.813 65.9601 195.087 61.3052L191.169 48.9228C179.352 46.3643 156.992 45.6344 133.4 45.1172L89.1531 45.6857C88.2809 45.6711 87.4737 45.7216 86.7224 45.8326C84.9305 46.0919 83.2786 46.9565 81.9871 48.2266L69.3301 60.6816L72.382 60.7735C77.4945 55.8103 83.5793 50.2189 85.2985 48.9871C84.8241 50.7323 82.7851 56.153 80.9741 61.1354L84.1539 61.3634L88.1868 48.8103L103.978 48.4699C104.597 48.5165 105.113 48.6213 105.519 48.7851C106.167 49.0467 106.532 49.7361 106.434 50.4278C106.079 52.9817 104.879 61.5585 104.83 61.7038C104.776 61.8653 149.254 64.4597 154.152 64.7451C154.275 64.7512 154.388 64.8071 154.471 64.8874C154.552 64.97 154.607 65.0833 154.613 65.2065C154.63 65.4941 154.4 65.7321 154.115 65.7283C123.029 64.9624 93.9158 64.4023 70.3515 64.4299C57.0494 64.345 45.2271 65.2026 34.6809 66.8729C30.456 67.882 29.1576 70.1184 29.6817 73.1191C33.0382 82.1711 36.1866 89.3722 40.1338 92.5466C35.5409 83.9698 38.7053 73.6027 47.0128 74.5285C47.1597 74.5453 47.2913 74.6096 47.3892 74.709C47.4895 74.807 47.5553 74.9386 47.5721 75.0855C47.6042 75.3877 47.4168 75.6707 47.1253 75.758C39.7627 77.9255 38.612 87.0891 43.4719 96.9459C44.4635 98.9574 45.9394 100.71 47.8299 101.916C53.4779 105.52 60.8428 103.732 64.0478 97.2596C56.5353 98.8748 53.191 90.894 56.7135 84.3876C58.7265 89.8871 57.4886 94.4647 63.9904 94.591L81.0315 95.1594C83.6283 101.157 87.3253 104.079 92.6756 102.372C98.4774 103.753 101.842 100.729 103.864 95.2719L111.818 95.1594C105.913 83.4939 109.025 70.3158 122.05 71.0671C122.291 71.0809 122.519 71.2194 122.614 71.4413C122.786 71.8407 122.508 72.2821 122.084 72.2997C120.59 72.3678 119.266 72.7236 118.076 73.3104C115.784 74.4428 114.088 76.5009 113.268 78.9209C110.455 87.2429 112.947 96.9092 117.212 101.521L140.387 102.032L142.603 98.2267C134.213 99.3124 131.702 90.1985 135.333 83.6141C135.559 83.2055 136.178 83.3371 136.216 83.8038C136.778 90.6691 137.921 93.8764 139.797 94.7608C140.043 94.8771 140.313 94.9337 140.586 94.9421L150.303 95.2535C152.557 102.299 155.681 105.101 161.858 102.315C170.788 105.176 177.522 103.633 179.808 93.1725C191.33 91.5145 198.809 91.4678 202.074 87.4923C207.797 88.1327 209.033 85.9537 208.484 82.6485H208.486ZM168.157 54.9235C168.278 54.3083 168.525 53.7384 168.97 53.2357C169.687 52.4247 170.764 52.0245 171.843 52.0888L186.758 52.987C186.758 52.987 189.029 52.5318 190.342 58.0352C191.655 63.5393 191.755 64.2455 191.755 64.2455L168.748 63.2646L168.109 55.8967C168.082 55.5708 168.092 55.2433 168.156 54.9243L168.157 54.9235Z" fill="white"/>
<path d="M29.8262 116.94V114.117H45.6355V120.394H43.2109L42.0816 117.704H35.771V123.849H38.3616L39.292 121.889H41.7166V129.495H39.292L38.4282 127.469H35.771V133.78H42.4136L43.2109 130.757H45.9675V137.367H29.8262V134.61L31.6532 133.913V117.639L29.8262 116.941V116.94Z" fill="white"/>
<path d="M62.108 117.637L59.9826 116.973V114.117H68.6841V116.94L66.5586 117.638L59.9489 137.366H55.9635L49.5864 117.638L47.4609 116.94V114.117H56.063V116.973L54.037 117.637L57.9558 132.184L62.1073 117.637H62.108Z" fill="white"/>
<path d="M70.2781 116.94V114.117H86.0874V120.394H83.6628L82.5335 117.704H76.223V123.849H78.8136L79.7432 121.889H82.1678V129.495H79.7432L78.8794 127.469H76.2222V133.78H82.8648L83.662 130.757H86.4187V137.367H70.2773V134.61L72.1044 133.913V117.639L70.2773 116.941L70.2781 116.94Z" fill="white"/>
<path d="M89.3081 116.94V114.117H98.3753C103.391 114.117 106.214 116.276 106.214 120.959C106.214 124.28 104.785 126.505 102.195 127.502L105.316 133.879L107.708 134.577V137.366H102.494L97.9109 128.133H95.2208V133.912L96.9813 134.576V137.366H89.3089V134.609L91.1023 133.911V117.637L89.3089 116.94L89.3081 116.94ZM95.2193 117.704V124.546H98.1091C100.733 124.546 101.862 123.483 101.862 120.959C101.862 118.7 100.7 117.704 98.1091 117.704H95.2193Z" fill="white"/>
<path d="M109.799 116.94V114.117H118.867C123.882 114.117 126.705 116.276 126.705 120.959C126.705 124.28 125.277 126.505 122.687 127.502L125.808 133.879L128.199 134.577V137.366H122.985L118.402 128.133H115.712V133.912L117.473 134.576V137.366H109.8V134.609L111.593 133.911V117.637L109.8 116.94L109.799 116.94ZM115.711 117.704V124.546H118.601C121.225 124.546 122.354 123.483 122.354 120.959C122.354 118.7 121.192 117.704 118.601 117.704H115.711Z" fill="white"/>
<path d="M139.757 137.699C132.981 137.699 129.76 132.451 129.76 125.743C129.76 119.034 132.982 113.819 139.757 113.819C146.532 113.819 149.753 119.034 149.753 125.743C149.753 132.452 146.532 137.699 139.757 137.699ZM139.757 134.111C144.174 134.111 145.336 129.229 145.336 125.742C145.336 122.255 144.174 117.405 139.757 117.405C135.339 117.405 134.177 122.121 134.177 125.742C134.177 129.362 135.339 134.111 139.757 134.111Z" fill="white"/>
<path d="M163.77 116.94V114.117H171.542V116.94L169.714 117.605V129.395C169.714 134.908 166.891 137.698 161.71 137.698C156.529 137.698 153.739 134.908 153.739 129.395V117.605L151.912 116.94V114.117H159.684V116.94L157.857 117.605V129.063C157.857 131.886 158.92 133.746 161.709 133.746C164.499 133.746 165.595 131.886 165.595 129.063V117.605L163.769 116.94H163.77Z" fill="white"/>
<path d="M179.677 133.912V117.704H176.954L175.825 120.394H173.4V114.117H189.741V120.394H187.316L186.22 117.704H183.796V133.912L185.623 134.576V137.366H177.885V134.576L179.678 133.912H179.677Z" fill="white"/>
<path d="M192.032 116.94V114.117H207.841V120.394H205.416L204.287 117.704H197.977V123.849H200.567L201.498 121.889H203.922V129.495H201.498L200.634 127.469H197.977V133.78H204.619L205.416 130.757H208.173V137.367H192.032V134.61L193.858 133.913V117.639L192.032 116.941V116.94Z" fill="white"/>
<path d="M66.7618 174.07V164.198L65.7036 163.834V163.054H73.7357V165.69H73.0241L72.4518 164.112H68.0456V168.553H70.4396L70.9775 167.373H71.6538V170.861H70.9775L70.4396 169.629H68.0456V174.07L69.1037 174.417V175.197H65.7036V174.434L66.7618 174.07Z" fill="white"/>
<path d="M87.1119 163.834V163.054H90.5296V163.834L89.4714 164.181V170.877C89.4714 173.93 87.9275 175.353 85.2733 175.353C82.6192 175.353 81.0752 173.93 81.0752 170.877V164.181L80.0171 163.834V163.054H83.4348V163.834L82.3767 164.181V170.842C82.3767 172.89 83.2267 174.191 85.2741 174.191C87.3215 174.191 88.1715 172.889 88.1715 170.842V164.181L87.1134 163.834H87.1119Z" fill="white"/>
<path d="M106.682 175.371L99.6381 164.668V174.071L100.888 174.417V175.198H97.2441V174.417L98.476 174.071V164.199L97.4178 163.835V163.055H100.124L106.526 172.839V164.182L105.294 163.835V163.055H108.885V163.835L107.653 164.182V175.371H106.682Z" fill="white"/>
<path d="M115.773 163.834V163.054H123.857V165.69H123.146L122.574 164.112H118.115V168.466H120.44L120.995 167.286H121.672V170.774H120.995L120.44 169.542H118.115V174.087H122.799L123.233 172.647H124.031V175.197H115.773V174.417L116.832 174.053V164.199L115.773 163.835V163.834Z" fill="white"/>
<path d="M131.075 163.816V163.053H135.117C137.927 163.053 139.437 164.128 139.437 166.505C139.437 168.379 138.482 169.471 136.695 169.853L139.437 174.051L140.824 174.415V175.196H138.621L135.325 169.991H133.417V174.069L134.475 174.415V175.196H131.075V174.415L132.133 174.069V164.18L131.075 163.816V163.816ZM133.417 164.146V168.9H135.083C137.165 168.9 138.085 168.119 138.085 166.523C138.085 164.927 137.183 164.146 135.083 164.146H133.417Z" fill="white"/>
<path d="M154.444 171.658H149.517L148.667 174.069L149.863 174.416V175.196H146.082V174.433L147.313 174.069L151.355 163.053H152.587L156.681 174.069L157.913 174.433V175.196H154.079V174.416L155.311 174.069L154.443 171.658H154.444ZM149.882 170.617H154.062L151.964 164.736L149.882 170.617Z" fill="white"/>
<path d="M164.074 174.417L165.132 174.053V164.181L164.074 163.817V163.054H167.474V163.834L166.416 164.181V174.086H171.065L171.499 172.647H172.297V175.197H164.074V174.416V174.417Z" fill="white"/>
</svg>
